# MagicaVoxel @ ephtracy

# material
mtllib pinceau.mtl
usemtl palette

# normals
vn -1 0 0
vn 1 0 0
vn 0 0 1
vn 0 0 -1
vn 0 -1 0
vn 0 1 0

# texcoords
vt 0.0214844 0.5
vt 0.0332031 0.5
vt 0.537109 0.5
vt 0.548828 0.5
vt 0.580078 0.5
vt 0.634766 0.5
vt 0.685547 0.5
vt 0.845703 0.5
vt 0.966797 0.5

# verts
v -1 0 1
v -1 0 -1
v -1 2 3
v -1 2 1
v -1 2 -1
v -1 2 -3
v -1 4 3
v -1 4 -3
v -1 5 3
v -1 5 -3
v -1 6 3
v -1 6 2
v -1 6 1
v -1 6 -0
v -1 6 -1
v -1 6 -2
v -1 6 -3
v -1 8 3
v -1 8 2
v -1 8 1
v -1 8 -0
v -1 8 -1
v -1 8 -2
v -1 8 -3
v 1 0 1
v 1 0 -1
v 1 2 3
v 1 2 1
v 1 2 -1
v 1 2 -3
v 1 4 3
v 1 4 -3
v 1 5 3
v 1 5 -3
v 1 6 3
v 1 6 2
v 1 6 1
v 1 6 -0
v 1 6 -1
v 1 6 -2
v 1 6 -3
v 1 8 3
v 1 8 2
v 1 8 1
v 1 8 -0
v 1 8 -1
v 1 8 -2
v 1 8 -3
v -1 2 3
v -1 4 3
v -1 5 3
v -1 6 3
v -1 8 3
v 1 2 3
v 1 4 3
v 1 5 3
v 1 6 3
v 1 8 3
v -1 0 1
v -1 2 1
v 1 0 1
v 1 2 1
v -1 0 -1
v -1 2 -1
v 1 0 -1
v 1 2 -1
v -1 2 -3
v -1 4 -3
v -1 5 -3
v -1 6 -3
v -1 8 -3
v 1 2 -3
v 1 4 -3
v 1 5 -3
v 1 6 -3
v 1 8 -3
v -1 0 1
v 1 0 1
v -1 0 -1
v 1 0 -1
v -1 2 3
v 1 2 3
v -1 2 1
v 1 2 1
v -1 2 -1
v 1 2 -1
v -1 2 -3
v 1 2 -3
v -1 8 3
v 1 8 3
v -1 8 2
v 1 8 2
v -1 8 1
v 1 8 1
v -1 8 -0
v 1 8 -0
v -1 8 -1
v 1 8 -1
v -1 8 -2
v 1 8 -2
v -1 8 -3
v 1 8 -3

# faces
f 4/3/1 2/3/1 1/3/1
f 5/3/1 2/3/1 4/3/1
f 7/3/1 4/3/1 3/3/1
f 7/3/1 6/3/1 5/3/1
f 7/3/1 5/3/1 4/3/1
f 8/3/1 6/3/1 7/3/1
f 9/9/1 8/9/1 7/9/1
f 10/9/1 8/9/1 9/9/1
f 11/2/1 10/2/1 9/2/1
f 12/2/1 10/2/1 11/2/1
f 13/2/1 10/2/1 12/2/1
f 14/2/1 10/2/1 13/2/1
f 15/2/1 10/2/1 14/2/1
f 16/2/1 10/2/1 15/2/1
f 17/2/1 10/2/1 16/2/1
f 18/4/1 12/4/1 11/4/1
f 19/7/1 13/7/1 12/7/1
f 19/4/1 12/4/1 18/4/1
f 20/6/1 14/6/1 13/6/1
f 20/7/1 13/7/1 19/7/1
f 21/5/1 15/5/1 14/5/1
f 21/6/1 14/6/1 20/6/1
f 22/1/1 16/1/1 15/1/1
f 22/5/1 15/5/1 21/5/1
f 23/8/1 17/8/1 16/8/1
f 23/1/1 16/1/1 22/1/1
f 24/8/1 17/8/1 23/8/1
f 25/3/2 26/3/2 28/3/2
f 28/3/2 26/3/2 29/3/2
f 27/3/2 28/3/2 31/3/2
f 29/3/2 30/3/2 31/3/2
f 28/3/2 29/3/2 31/3/2
f 31/3/2 30/3/2 32/3/2
f 31/9/2 32/9/2 33/9/2
f 33/9/2 32/9/2 34/9/2
f 33/2/2 34/2/2 35/2/2
f 35/2/2 34/2/2 36/2/2
f 36/2/2 34/2/2 37/2/2
f 37/2/2 34/2/2 38/2/2
f 38/2/2 34/2/2 39/2/2
f 39/2/2 34/2/2 40/2/2
f 40/2/2 34/2/2 41/2/2
f 35/4/2 36/4/2 42/4/2
f 36/7/2 37/7/2 43/7/2
f 42/4/2 36/4/2 43/4/2
f 37/6/2 38/6/2 44/6/2
f 43/7/2 37/7/2 44/7/2
f 38/5/2 39/5/2 45/5/2
f 44/6/2 38/6/2 45/6/2
f 39/1/2 40/1/2 46/1/2
f 45/5/2 39/5/2 46/5/2
f 40/8/2 41/8/2 47/8/2
f 46/1/2 40/1/2 47/1/2
f 47/8/2 41/8/2 48/8/2
f 54/3/3 50/3/3 49/3/3
f 55/9/3 51/9/3 50/9/3
f 55/3/3 50/3/3 54/3/3
f 56/2/3 52/2/3 51/2/3
f 56/9/3 51/9/3 55/9/3
f 57/4/3 53/4/3 52/4/3
f 57/2/3 52/2/3 56/2/3
f 58/4/3 53/4/3 57/4/3
f 61/3/3 60/3/3 59/3/3
f 62/3/3 60/3/3 61/3/3
f 63/3/4 64/3/4 65/3/4
f 65/3/4 64/3/4 66/3/4
f 67/3/4 68/3/4 72/3/4
f 68/9/4 69/9/4 73/9/4
f 72/3/4 68/3/4 73/3/4
f 69/2/4 70/2/4 74/2/4
f 73/9/4 69/9/4 74/9/4
f 70/8/4 71/8/4 75/8/4
f 74/2/4 70/2/4 75/2/4
f 75/8/4 71/8/4 76/8/4
f 79/3/5 78/3/5 77/3/5
f 80/3/5 78/3/5 79/3/5
f 83/3/5 82/3/5 81/3/5
f 84/3/5 82/3/5 83/3/5
f 87/3/5 86/3/5 85/3/5
f 88/3/5 86/3/5 87/3/5
f 89/4/6 90/4/6 91/4/6
f 91/4/6 90/4/6 92/4/6
f 91/7/6 92/7/6 93/7/6
f 93/7/6 92/7/6 94/7/6
f 93/6/6 94/6/6 95/6/6
f 95/6/6 94/6/6 96/6/6
f 95/5/6 96/5/6 97/5/6
f 97/5/6 96/5/6 98/5/6
f 97/1/6 98/1/6 99/1/6
f 99/1/6 98/1/6 100/1/6
f 99/8/6 100/8/6 101/8/6
f 101/8/6 100/8/6 102/8/6
